<mxfile host="app.diagrams.net" modified="2024-01-26T07:24:00.923Z" agent="Mozilla/5.0 (X11; Linux x86_64) AppleWebKit/537.36 (KHTML, like Gecko) Chrome/120.0.0.0 Safari/537.36" etag="nwflzSh3J5ugtY25jOhp" version="23.0.2" type="github">
  <diagram name="Page-1" id="fIwjhnJ6kmcmR6iVcwkf">
    <mxGraphModel dx="1434" dy="773" grid="1" gridSize="10" guides="1" tooltips="1" connect="1" arrows="1" fold="1" page="1" pageScale="1" pageWidth="850" pageHeight="1100" math="0" shadow="0">
      <root>
        <mxCell id="0" />
        <mxCell id="1" parent="0" />
        <mxCell id="1HZLHkHwK4EhgwmRbPj2-2" value="car rental system architecture diagram" style="text;strokeColor=none;align=center;fillColor=none;html=1;verticalAlign=middle;whiteSpace=wrap;rounded=0;fontSize=18;" vertex="1" parent="1">
          <mxGeometry x="248" y="10" width="355" height="90" as="geometry" />
        </mxCell>
        <mxCell id="1HZLHkHwK4EhgwmRbPj2-13" value="gorilla websocket" style="edgeStyle=orthogonalEdgeStyle;rounded=0;orthogonalLoop=1;jettySize=auto;html=1;exitX=1;exitY=0.5;exitDx=0;exitDy=0;fontColor=#3399FF;spacing=3;fontStyle=1" edge="1" parent="1" source="1HZLHkHwK4EhgwmRbPj2-4" target="1HZLHkHwK4EhgwmRbPj2-7">
          <mxGeometry relative="1" as="geometry" />
        </mxCell>
        <mxCell id="1HZLHkHwK4EhgwmRbPj2-4" value="On Board Unit (obu)" style="rounded=0;whiteSpace=wrap;html=1;" vertex="1" parent="1">
          <mxGeometry x="71" y="160" width="120" height="60" as="geometry" />
        </mxCell>
        <mxCell id="1HZLHkHwK4EhgwmRbPj2-7" value="Data Receiver" style="rounded=0;whiteSpace=wrap;html=1;" vertex="1" parent="1">
          <mxGeometry x="365" y="160" width="120" height="60" as="geometry" />
        </mxCell>
        <mxCell id="1HZLHkHwK4EhgwmRbPj2-8" value="distance calculator" style="rounded=0;whiteSpace=wrap;html=1;" vertex="1" parent="1">
          <mxGeometry x="671" y="160" width="120" height="60" as="geometry" />
        </mxCell>
        <mxCell id="1HZLHkHwK4EhgwmRbPj2-9" value="aggregator" style="rounded=0;whiteSpace=wrap;html=1;" vertex="1" parent="1">
          <mxGeometry x="671" y="290" width="120" height="60" as="geometry" />
        </mxCell>
        <mxCell id="1HZLHkHwK4EhgwmRbPj2-10" value="Gateway" style="rounded=0;whiteSpace=wrap;html=1;" vertex="1" parent="1">
          <mxGeometry x="365" y="290" width="120" height="60" as="geometry" />
        </mxCell>
        <mxCell id="1HZLHkHwK4EhgwmRbPj2-17" value="Kafka producer / Kafka consumer" style="edgeStyle=orthogonalEdgeStyle;rounded=0;orthogonalLoop=1;jettySize=auto;html=1;fontColor=#3399FF;spacing=3;fontStyle=1;exitX=1;exitY=0.5;exitDx=0;exitDy=0;entryX=0;entryY=0.5;entryDx=0;entryDy=0;" edge="1" parent="1" source="1HZLHkHwK4EhgwmRbPj2-7" target="1HZLHkHwK4EhgwmRbPj2-8">
          <mxGeometry relative="1" as="geometry">
            <mxPoint x="501" y="190" as="sourcePoint" />
            <mxPoint x="621" y="189.5" as="targetPoint" />
          </mxGeometry>
        </mxCell>
        <mxCell id="1HZLHkHwK4EhgwmRbPj2-20" value="GRPC or HTTP" style="edgeStyle=orthogonalEdgeStyle;rounded=0;orthogonalLoop=1;jettySize=auto;html=1;fontColor=#3399FF;spacing=3;fontStyle=1;entryX=0.5;entryY=0;entryDx=0;entryDy=0;exitX=0.5;exitY=1;exitDx=0;exitDy=0;" edge="1" parent="1" source="1HZLHkHwK4EhgwmRbPj2-8" target="1HZLHkHwK4EhgwmRbPj2-9">
          <mxGeometry relative="1" as="geometry">
            <mxPoint x="641" y="250" as="sourcePoint" />
            <mxPoint x="616" y="330" as="targetPoint" />
          </mxGeometry>
        </mxCell>
        <mxCell id="1HZLHkHwK4EhgwmRbPj2-23" value="HTTP" style="edgeStyle=orthogonalEdgeStyle;rounded=0;orthogonalLoop=1;jettySize=auto;html=1;fontColor=#3399FF;spacing=3;fontStyle=1;exitX=0;exitY=0.5;exitDx=0;exitDy=0;entryX=1;entryY=0.5;entryDx=0;entryDy=0;" edge="1" parent="1" source="1HZLHkHwK4EhgwmRbPj2-9" target="1HZLHkHwK4EhgwmRbPj2-10">
          <mxGeometry relative="1" as="geometry">
            <mxPoint x="433.5" y="450" as="sourcePoint" />
            <mxPoint x="648.5" y="450" as="targetPoint" />
          </mxGeometry>
        </mxCell>
        <mxCell id="1HZLHkHwK4EhgwmRbPj2-24" value="" style="rounded=0;whiteSpace=wrap;html=1;textOpacity=50;fillStyle=auto;fillColor=none;" vertex="1" parent="1">
          <mxGeometry x="41" y="110" width="770" height="310" as="geometry" />
        </mxCell>
        <mxCell id="1HZLHkHwK4EhgwmRbPj2-25" value="Price calculation per kilometer services" style="text;strokeColor=none;align=center;fillColor=none;html=1;verticalAlign=middle;whiteSpace=wrap;rounded=0;" vertex="1" parent="1">
          <mxGeometry x="41" y="380" width="220" height="50" as="geometry" />
        </mxCell>
        <mxCell id="1HZLHkHwK4EhgwmRbPj2-30" value="&lt;b&gt;management, authentication and car reservation&lt;/b&gt;" style="text;strokeColor=none;align=center;fillColor=none;html=1;verticalAlign=middle;whiteSpace=wrap;rounded=0;" vertex="1" parent="1">
          <mxGeometry x="275" y="700" width="300" height="70" as="geometry" />
        </mxCell>
        <mxCell id="1HZLHkHwK4EhgwmRbPj2-32" value="&lt;span style=&quot;color: rgb(0, 0, 0); font-family: Helvetica; font-size: 24px; font-style: normal; font-variant-ligatures: normal; font-variant-caps: normal; font-weight: 700; letter-spacing: normal; orphans: 2; text-align: center; text-indent: 0px; text-transform: none; widows: 2; word-spacing: 0px; -webkit-text-stroke-width: 0px; background-color: rgb(251, 251, 251); text-decoration-thickness: initial; text-decoration-style: initial; text-decoration-color: initial; float: none; display: inline !important;&quot;&gt;REST-API&lt;/span&gt;" style="ellipse;whiteSpace=wrap;html=1;aspect=fixed;" vertex="1" parent="1">
          <mxGeometry x="315.5" y="480" width="220" height="220" as="geometry" />
        </mxCell>
        <mxCell id="1HZLHkHwK4EhgwmRbPj2-33" value="" style="shape=image;imageAspect=0;aspect=fixed;verticalLabelPosition=bottom;verticalAlign=top;image=data:image/png,iVBORw0KGgoAAAANSUhEUgAAAgAAAAIACAYAAAD0eNT6AABb+klEQVR42uzdCZhcVZk+8Pc7t7q6sxFCQthkUZB9CaAIhKS6O4kQsnQSUtUJIC4o6Ki4jI4zjtoG932bQcEZwQxCUhWSVKeTgFm6KwHZEWQTRFYhkARIQtJLVd3z/Z/uoH/FJH1v17219ft79FGxu6vqq3PPec+5595rQERERIMOAwAREREDABERETEAEBEREQMAERERMQAQERERAwARERExABAREREDABERETEAEBEREQMAERERMQAQERERAwARBavp5thRrAIRAwARDTYR84vY9bE6FoKIAYCIBguFQLVh+HB7EYtBxABARINEPHXeGECiRiMfYTWIGACIaJDYifzBvf8p0ImzF8VOZkWIGACIaBCIaO1puwOAiDWmhRUhYgAgokFAxUz423+HXjRzyTmnsypEDABEVOUc0fq//neBCGzd11gVIgYAIqpiTUsa3gOVY//+nwkwbVZy0jmsDhEDABFVKWvtHnf+W1iuAhANMsISEA0Ok2+efOgwJ/8nQIbu6f/PqTSual7fzkoRcQWAiKrIMMcu2Nvg36tG7NdZJSKuABBRFWlKxsYB5l4AkX3+oLrT0s0bVrFiRFwBIKIKN3XV1FpAft3v4N/XI5iv9d0qmIgYAIioskV3dX8XkFM9/bDKGTOXTJzNqhExABBRBZu5eML7objK1y+pc3VLSwv7BiIGACKqzMG/caKIc53f3xPgpPtOXj+fFSSqbjzXR1SNg/+Sc04XrV0HlVED/BNPbTvQnpBpyORZTSKuABDR4Bj8ex2z/1Z8gNUk4goAEVWApiWN58LqSgD7F/q3FPq8HTL8hLYZbZ2sLBFXAIioTM1INk5R1d8GMfjvnh3IEU7Xri+wskRcASCiMnVhqr4pAlkkirog/64KulXdE1ckNjzDKhNxBYCIysjMxQ0fqVG5JejBv2+GoKgz4vycNwciqj4OS0BUwYN/cuKnIPJfAgkzzB9z3GPv2PpE6pl7WHGi6sFUT1SJFDIjVf8dA/l8kV6wy1h75rJ5Gx5n8YkYAIioBFpaWsyDJ3VcA5gri5o5BI+/Gs2+546mO97gt0BU+bgHgKjSBv+TN/yy2IM/du8HOGFMT/T/uB+AqDpwDwBRhYgn485fDnr816J4fwnfxvHHP/p2PLHk2Q5+I0SVjUmeqEIG/x7ZeoMoLi31e1GoQuXDrc3tv+I3Q8QAQEQhueLaM2teGbXfIgBzyuU9qWgOqjNbE5lb+Q0RMQAQUQiD/8sH7JcUxazye3faCdFp6XiGpwOIGACIKCjxZDzaI1sXl+fg/9eVAOxy1F6wLJG5nd8YEQMAEQ2Cwf9vIQDYboBJyxPt9/ObI2IAIKICBv8stiYBNFVQT7LVCupXzG1/lN8gEQMAEfk0ddXU2sjO7iUGmF557143ucbG2uZu+BO/SSIGACLyN/NPAZhZqZ9Bgb8Yi/rl89r/zG+UqLzxToBEHPyDnFG8TR1tn3PLpHfwWyXiCgAR9Tf4y+YlUDOjWj6TQp8XV2Pp+Zln+Q0TcQWAiN7iimvPrOnBlnQ1Df67ZxZyBCJm7bRk42H8lokYAIjoLV4aNeK7ArmgKj+c4mgHujaePO9AftNE5RjUiagkpiUnznRglgukqo9DK3jIRGx9enZmG791IgYAokFtZjJ2DGDuE2Dk4PjE2rFtl07NfDDTzW+fqDzwFABRkcWuj9WJyOLBM/j3zTXq9x+OZKw9FmELIGIAIBqURgwzP4HKGYPug6uZsf9W/A+UK49E5cBhCYiKZ2YqNs9AvjV4KyDjjn/s7ZEnUs+uZ2sgKvHRyBIQFccFyfHH1aLmXkBGDPZaWMHHV8Tbr2GrIGIAIKpqUxZOGTa0LncPICeyGn3cPNw5KxMbWlkKotLgHgCiIhhal7+Gg/8/cCIwN89KNp7FUhAxABBVpabUxCsBXMZKvJUMVdjl05OTj2AtiEpwBLIEROGZsaTxVGPtXYAMYTX2Rh/s7K45b81la3axFkRcASCqeOPT40cYq0kO/v3OQ8YNrcsv5OWBRAwARFUwqYWMzkavB3Aci+HJnKZkQwvLQFTE6M0SEAVvZrLhswL8gJXwk5lUIXpxazyziNUgYgAgqjizkpPOseJmRKWG1fAdAzpdK+e2zWt/iLUgYgAgqhjx5PkHZCV7PxRHsRoDXQnAc6bGnLl89rpXWQ2i8HAPAFFAWlpaTDe6b+TgX/Cs5Eg3Z2/orSerQRQePguAKCAjP+H8p4FcwUoEEgKO3XTQ8/knUs9sYDWIQjvOiKhQTalYPdSsZagOjopaqE5rTWRuZTWIGACIys7spRMOcfORBwQ4mNUIvIfa6hh7+tKLMn9hMYiCxXNsRAVoaWkx1nUWcvAPaxkAY1wXN8WTca6sEDEAEJWPh07KfB0qk1mJULupCVnd+mXWgShYPAVANEBNiydeqMasEBUG6bAXAkStqkxZkWhfz2oQMQAQlW7wv3nC4YhEHoBiDKtRpBAAvGjzdlzbxZmtrAZR4ThzIfIpnow7GnGSHPyLPls5zImY/2UliBgAiEoiK1svE5WzWYmSmDkrOfFyloEokFBNRF7Fro/VjRwmTwjkCFajNFSwC2rHtSYyT7EaRFwBICqK/Yfqpzj4l3jWohgGMTfw0kAiBgCiopj2m/NGqZh/YyXKIgSMz+qrn2EliBgAiMIfdGpq/lMgB7ASZZMCvj5jScNJLATRAA8hloCof003x46CY/4IoJbVKB8KvacWB56bSqRcVoOIKwBEwXPwdQ7+5TiDkbOyuvkqVoKIKwBEgZu+qOE04+gDvONf2a4DdIqVU5fPa/8za0HEFQCi4Cb/xn6Pg39Zz2OGqmN/CeWEhogBgCggM5KNUwAzhZUo90UA0zArNfFDLAQRAwBRwVpaWowR+21WojJYmO/Gk+cdyEoQMQAQFeSBEzsuhsoZrERlEMgB3XC+xUoQeT1miOifxJPxaDe2PG4g72A1KodCVYw5Lz13/e9YDSKuABD51oOtn+DgX5GrAAKrv4i1xyKsBhEDAJEvTcti+wvwRVaiYp0ycot+nGUgYgAg8idv/h3AaBaikjkLZi+dMpZ1IGIAIPJkWrLxMKh+kpWobAKMtPns1awEEQMAkbd5I/B1QIayElXRvX14xpLGU1kHIgYAon2amjz7FIG+j5WonjxnrP6IZSBiACDap6gM+fbuRQCqIo3TkhNnsgxEDABEe9SUitVDcSErUX0iYr53xbVn1rASRAwARP9IIQrhHeSq9vuVY1/af+TlLATRP+KdAImz/+SEZiCyiJWo6hSwyR0y/Ji2GW2drAURVwCIsHtpOPJ1VqLq5zqHmK7Oq1gHIgYAoj6v7L/fxwAcw0oMgggA/UI8ef4BrAQRAwANcuPT40fA8Ja/g8j+Wcn+G8tAxABAg9yYnugXoDiIlRhEVD8546ZGfudEDAA0WM1eOuEQFXyalRhsZKipsZ9jHYgYAGiQsnn5kCiGsRKDcBEA8jE+KIiIAYAG7SDgXMoqDNI1AMUwN5//V1aCBv2xwBLQYDN1cezsqJg7WYlBHAAFuxwn8o5lc9ZsZjWIKwBEg0TEyPtZBa4CaD7HPSDEFQCiwSKejEez2PoSgNGsxmBfBdAdtRo5IpVYu53VIK4AEFW5Hnm1iYM/7V4FkP26kLuClSAGAKJBMe1TLv/T33WA5lPxZDzKShADAFEV67v0S/S9rAT9bRUAOKxHt/KKEGIAIKpmNpe9RFT4XHj6xxAg+LeWlhb2hcQAQFTFPf1lLALtwXEPndxxIctADABEVWj2otjJgIxjJWhPrJpPsgrEAEBUjR28Ix9iFWhvBHjv7pBIxABAVDVi7bGIqsxnJWifIdGYj7EKxABAVEVGbcUFAhzMSlA/LosnJ49kGYgBgKhKqHLzH3kyPCv2gywDMQAQVYFpvzlvlIrMYCXIG/sxKG+RTgwARBVPItFmUdSxEuSJyrGzUw0TWQhiACCq9AZuLG/9S/7WAGA/wirQoJggsQRUraYvmfhOY80TAmE7Jz963Lx9W9vFma0sBXEFgKgCOdZ5Pwd/GoBaE9FLWAZiACCqQC0tLUah72MlaIDxkacBiAGAqBI9cNKGeoEcwUrQQAhw0qxk41msBDEAEFVew+bmPyqQ5QoSVXvQJaouUxZOGTa0Lv8ygOGsBhXg1SjGHJpKpLIsBXEFgKgCDKntnsvBnwIwuhOvXMAyEAMAUYUQifDWvxSICByeBqDq7StZAqom05OTjzCSf0ZUGG4pCD35XO6QlZfc/jpLQVwBICrrRJv/GAd/ClCtE6mZzTIQAwBRGYsn444AV7ASFGioNEiwCsQAQFTG8th8jkAOYCUoUIpJ8eR5B7IQxABAVKZcMVNZBQpBpEdrZrEMxABAVKZEwQBA4bQtozwNQNXXrlkCqgazl044xM07L/LhPxSSfBS5Q1OJ27ewFMQVAKIyYt3IBRz8KUSRrJg5LAMxABCVWwAAeMc2CpWqE2cViAGAqKx6ZohRrWchKEwC1M9eOmUsK0EMAERlYsYtDScCwo6ZwuZoPs+rAYgBgKiMVgBiLAIVpamJ8jQAMQAQlREGACpWAqiftWzSaBaCGACIyqIR63msAhVJRHN6IctADABEJXZBcvxxUDmUlaDisTNYA2IAICqxOkS5/E9Fz51TV02tZRmIAYCohFTsuawCFZeMiL7RxctOiQGAqKQBAOYsVoGK33MqTwMQAwBRqcSTk0cCehwrQSXoOqexBsQAQFQiWc29W1TYhqn4FEfNTMaOYSGIAYCoFETfwyJQyTKAmPeyCsQAQFQSzrtZAypZ/gSmsArEAEBUmjkYNwBSKdtfY6w9FmEdiAGAqIhiydjBgBzCSlDJVgBU9tv/VYchlBgAiIppf5XTWAUq+RqAurwRFTEAEBWTK3oqq0ClDwCYwCoQAwBRMRuuGAYAKoMOVM7jPgBiACAqIlGuAFBZtMQRo7YYno4iBgCiYrji2jNrABzPSlA5sAD3ARADAFExbBo98gRAoqwElcUaAHAOq0AMAETFaLQ2dwKrQOVCAd6QihgAiIojwgcAUTmtABw546bGg1gJYgAgCh8DAJVXCIjYd7EKxABAxABAgy0AqPA0ADEAEIVKIYAey0JQWTVLAVcAiAGAKEzTUo2HAjKClaAyiwCnsAbEAEAUaoNVLv9TOTq8aVlsf5aBGACIQuIAx7AKVG4EIpo1J7ESxABAFBIrOJJVoLIMAcY9mVUgBgCisDpZxVGsApVn2zQMAMQAQBQeZQCg8myZkBNZBWIAIAptmsUVACrXAICjWQViACAKwdRVU2sVOJiVoPIMp3p4bxtlIYgBgChgtTuyR4oK2yyV6fgvpreNshLEAEAUMJX8EawClTPXyfM0ADEAEAUeAIw5lFWg8l4FcBgAiAGAKPAAYPE2VoHKOgCIso0SAwBR0BzRQ1gFKu+UCrZRYgAgCr5vFZ4CoDJnGQCIAYAo8AAgygBAZd5GhQGAGACIQlgCYACgsibKAEAMAERBD/4ivAkQlX0z1QPiyXiUlSAGAKKANC2PjQSEHSuV9woARLrzr45iJYgBgCiomVUOY1gFqgS5SM/+rAIxABAF1lAjB7IKVAlqTZQBgBgAiIKSV+UKAFUGVxkAiAGAKLiGqlwBoMogLgMAMQAQBdZQDfcAUKUEAGEAIAYAoqAocACrQBUx/sMZySoQAwBRcAlgBItAFdFULYayCsQAQBRctzqENaAK6VXrWARiACAKLgBwVkWVgmGVGACIAmyq7FSpIrjKFQBiACAKjnAFgCqDAwYAYgAgCpA6rAFVSFvlahUxABAF16cizyJQJbAQBgBiACAKrlNlAKCKaa1crSIGAKLAGqowABARMQDQ4KMmxyIQETEA0KBjGQCoIghEWAViACAKavgHdrIKVAkUqqwCMQAQBdVQRXawCkREDAA06JYAGACIiBgAaNAR477BKlCFdKsua0AMAERBLQBYhysAVCGdqnaxCsQAQBTUCoDkGQCoUnSzBMQAQBTUCoAYBgCqCC6EKwDEAEAUlIiCewCoIjjCFQBiACAKTN5wDwBVBlUGAGIAIAquoeZcBgCqCKLgKQBiACAKbAXAuttZBaoErthdrAIxABAFZOXFt29TUT4PgMq/U1XzKqtADABEQRGoAFtYCCr/pmpfYxWIAYAoQBbCAEBlT+EwABADAFGgjVXtZlaByp2jLgMAMQAQBYwBgMreG1rDAEAMAERBcnkKgCpArjvHAEAMAESBNlZRrgBQuduZ+WCGNwIiBgCiIIliE6tAZe5FloAYAIgCljeRP7MKVOYp9QUWgRgAiAIWNdmnWAUqZ6rmL6wCMQAQBWzZnI2bAOVTAal8FwCgPAVADABEIeFpACrjAMA9AMQAQBRWF8vTAFS28io8BUAMAERhsFAGACpbjrjcBEgMAEShdLCwDABUlhSqnd3RP7ESxABAFEYna5xHWAUqRyL4y5rL1uxiJYgBgCgEUdv1BwB5VoLKLpyqPMkqEAMAUUhSibu6VPSPrASVYQRgACAGAKIwicoDrAKVXbsUwwBADABEIfe0v2cRqOzYPAMAMQAQhUktuAJAZceJ1PDUFDEAEIUpl6t9UEUtK0FlE0qB7UvnrHuGlSAGAKIQrb509Q5R4fXWVE4B4EFI738QMQAQhcrC3s4qUNl0pKI8LUUMAETFIGI2sApUPksAhhtTiQGAqCgBIJ9vZxWoXGTR+SCrQAwAREWQnr/xBQWeYyWoDPQc/nqOVwAQAwBR0VYBxHawClRqKrjvuivvz7ESxABAVKyO13IfAJVBEIUsYRWIAYComI1XkWEVqNRcya9kFagywytRBWtKNTwDxVGsBJWCAs+1JtrZ/ogrAERF74BVV7MKVLoZlKxhFYgBgKgErBoGACpdABV3HatADABEJTBEOtcC2sVKUNEHf6hqzuH9KIgBgKgUUom7uiDCqwGo6AR4aMXF619hJYgBgKhULFaxCFSCBLCWRSAGAKISUrEMAFT8dqfK8//EAEBUSq2JzFMq+ggrQUUc/rNd3dGNrAMxABCVmKikWAUqot+tuWzNLpaBGACISt+UeTtWKiLL8//EAEBUDtKJdY8B+hgrQcXgWt6AihgAiMoHTwNQMeb+0C1nPt7I5/8TAwBR2TRmtTwNQEXoNGX1ggULLCtBDABEZWLZvMwjKniclaAwucBtrAIxABCVG5WFLAKFOv7n7W9ZBmIAICq/2dn/7f4PohDyJdDRdnFmKytBDABEZWZlYv2LCvAObRQKq8J9JsQAQFS2nTTwa1aBQuCKi2UsAzEAEJWpIejq7aS3sRIUKLEb+PQ/YgAgKmN9jwgGl2opWJZ3myQGAKIKmKwBv2QVKEA9mrNJloEYAIjK3PLE+nsg9l5WggKZ/Ysu5e5/YgAgqhSKa1gECoID/C+rQAwARBUiO3zozRa6hZWgggiePe2RWDsLQQwARBVi9YWrewDcwEpQQaz9Fe/9TwwARBWmxnF+oaLsvGmg8rCWIZIYAIgqzdKL1j0t0JWsBA1Qa3r+xhdYBmIAIKrEKZxEvscq0ICI/RmLQFXbvFkCGgyakvV3AHIuK0He6WPpeMfJEChrQVwBIKrYvly5CkB+Z/8/5eBPDABEFS6dyKR7Z3SsBHm0rbOr9kaWgRgAiCp+NgeF6I9YCPLCQn+55rI1u1gJYgAgqgLZYUP/D6IvsRLUj54uN/JjloEYAIiqxO4bA8m3WQnaFxVduHb+WgZFYgAgqq5VgLrrIMrrumlvg781rvN9VoIYAIiqcBVAVL7FStCeiMrS5fPWPclKEAMAURUa+/qO/wH0GVaC3iqr9gesAjEAEFWp6668P6dcBaC3UGDd6ubMXawEMQAQVbGDt+24AYI/sxL0t85Q8F1WgQYT3gqYBq2m5IRmILKIlSAreGjF3PbTeec/4goA0SCQjm9MquAOVoIci29y8CcGAKLBQqA5az+nUHb8g3n2D326RsbcwkoQAwDRINK36UtkKSsxiHOgyjdSiZTLShADANEgEzHm3wD0sBKD0hPbx9qFLAMxABANQksvWvc0gF+wEoOPivvFTEMmz0oQAwDRIJXN1n0F0E2sxCAi9t7WuRuWsRDEAEA0iK2+dPUOFfl3VmIQjf+Q/+DOfxrcxwAR7aaQplT9ekDqWYxq/6rx29ZE+/msBHEFgIj6Lgu0Rj6hojkWo5oHf1Ux+AorQQwARPQ3K+a2PyrAf7ESVRwARFLpue13sxLEAEBE/yDbM+SrCvyFlahKPSrul1gGIgYAon+y+tLVO0TdK1mJqvSdtrkb/sQyEDEAEO1RunnDKgA3sRLVQ4Hn3CHDvsNKEDEAEO2T1JirIHiFlaiaCPDxthltnawDEQMA0T4tn73uVWj+U6xEFQz9gltaEx0rWQkiBgAiT9KJjYsBy7vFVfbw3yl5+znWgYgBgMjfQRKxH4dgKytRmVzoV9PzM8+yEkQMAES+LJuzcVMO+mFWogLn/sCjh76+88esBBEDANGArIp3pCH4FStRUfJicPl1V97POzsSMQAQDVxnV+QqALyGvHKm/9/gHf+IGACICrbmsjW7rLqX8FkBFeH+g7bt+AbLQLR3DktA5N2TS5576fj42yMAYqxG2U79O3uQO3/x++/ezFoQcQWAKDDjHp24QIF1rER5siKfvzVxxxOsBNG+CUtA5N+MmxoPMhH7e0AOYTXKavhfk45nzodAWQsirgAQBW7Fxetfyam5pO8ycyqT6Yy+7jj4EAd/IgYAolCtal7fDsXXWYnSU6iKxUeWXpThY5yJGACIwjfusYlXA3YNK1Hiyb/gB8ubO25hJYh8HDcsAVFhZi+dMta6ufugcjirUXwWyOw40E7ONGTyrAYRVwCIimbZnDWboToTUD5qtsgUeDkSyc/n4E/EAEBUEulE5sG8uFewEkUc/EVzDmx82ZyNm1gNIgYAopJZGd/4GwA/ZCWKNfuXTy9LZG5nJYgYAIhKLoox/2ZhV7MSYbO/WRFvv4Z1IGIAICoLqUTKrUPdpQCeYjVCm/s/6A4ZwdMtRAXiVQBEIZi1qOFo1+idBnIgqxFkj6UvIe+enZ6/8QUWg4grAERlZ/m89j9b41wEoIfVCGzm/wZUp3HwJ2IAICprK+eu2wjk369Q3pq20KFfNAdFPJ3IPMhqEAWDjwMmCtETqecffWfiCBiYelajkJmKfDLd3LGIlSBiACCqGE8mn9tw/ONHHgXIOFZjQL6RTrR/l2UgCjpYE1G4BBrVsZcDdhmL4dvCdLz9yywDEQMAUUVKJVJuFD2XAHYjq+GNCpZvO9Bezsf7EjEAEFV4CLirK4qaGYByI1t/gz+wLjesbh7v8U8UHt4HgKjIJt88+dBhTv52QN7OauzR3VHYyalEZidLQcQAQFRVpi+Z+E5HnY1QHMRq/IOH87lcbOUlt7/OUhAxABBVpanJs0+JypD1UIxhNfqW/f+4HbYhk8i8zGoQhY97AIhKZHXiroddF5MV+hqnIvpkp+tM4uBPxBUAokFj5pJzThetXQeVUYO0BH/a5Tr1a+evfYmtgYgrAESDRuvcO38v6kzru9f9IBz885AGDv5EDABEg9LyxLo7DWSGCnYNtpn/ysT6F9kCiBgAiAatZYn2jKP2AhXdwZk/EYWNewCIyszUJbF31Vi5TSAHVOlHfCoP4cyfiCsARPT3Vs/N3AfTMxmCrVU45XgWrp3CwZ+IAYCI9qB17p2/h5oYoJuq5TMp8BzytiE9P/Msv2EiBgAi2ot0Yt1jgDMZoi9Vwcz/z+LmJ3DwJ2IAICKvISCv4yH6ZAXP/R9zjK1Pz9/4Ar9RIgYAIvIaAuZnno1q7TkKe2fFDf3Qe9y8xpZelPkLv0kiBgAi8imVuO21WuC9gF1TKe/ZAm12yPCGtoszW/kNEjEAENGAQ0BmZxRjpwNYWOazflXgu3UYM6ttRlsnvzmi8sT7ABBVoJnJiZ+CmB+KSlmFeBV0A7iyNd6+kN8SEQMAEYVgWmrCJRGN/C+A2jIZ/p9R03NR3yWMRFT2eAqAqEKtjG/8jaq8F8CrJR/6gZX5XP5MDv5EDABEVAStzes3OI45SwWPl2bgV4XgO6c/OnHmyktuf53fCFHl4CkAoiowPj1+xJhsdBEUFxbxZV+F6iXp5o7b+A0QcQWAiErgjqY73jjotR2zXOC6Is3874GbP52DPxFXAIioTDQtjn0GYr4HwAmp13g2ql0nphJ3dbHaRFwBIKIykW7O/Aiq0xTYHsr4b/EFDv5EXAEgojI1NXn2KTUYskKAI4P6mwp7Z2s8Mx4CZYWJuAJARGVodeKuh13IeAD5YAZ/VTHmMxz8iRgAiKjMrUysf9FC7wribwn0pvTc9rtZVSIGACKqAAKzMoD5f5eLmi+ymkQMAERUIdRgVcF/A5JuS6x9ntUkYgAgogqxYu76PyjwXCF/wwIrWEkiBgAiqjACe2sBv57XXG41q0jEAEBEFSYPXVXA7P8O3uefiAGAiCpQtrt23ZvP6vdNRJ9kBYkYAIioAq25bM0u0YFdDigqm1lBIgYAIqpUIn8YyK8p5GUWj4gBgIgqln14QLkBLgMAEQMAEVWqrMUjA/m9vIm8wuoRMQAQUYUaLnhEoep/BSDHFQAiBgAiqlSpRGanAM/6/T23exhXAIgYAIiosonPfQDatfrS1TtYNyIGACKqYCo+9wGIcPZPxABARJXP35UACuX5fyIGACKqdI7rbwVAlCsARAwARFTxDty+8wlAs15/3gUYAIgYAIio0l135f05QJ7wvGIA8BQAEQMAEVUJz/sAVF0+B4CIAYCIqoECf/HeQRiuABAxABBRNbCwW73/LB8ERMQAQERVwQG2eP5hsdwESMQAQETVQASeVwC2AztZMSIGACKqAipmC6tARAwARINtBSDvfQXggIgVVoyIAYCIqkBPvs7zCsAbPbUMAEQMAERUDd58ul+Pl5+tdbgCQMQAQETVQ/RVFoGIAYCIBhkL2eJtBcDlCgARAwARVc8CgLeNgG6WpwCIGACIqJp4WgFwHW4CJGIAIKIqOvDV0wpAlJsAiRgAiKh65Pv+RUQMAEQ02A58x8vP2ZxGWC0iBgAiqhICcTz2EPuzWkQMAERUJayop2Nf1Y5itYgYAIioWg58FettpcAcwGoRMQAQUfXIeVoBMC5XAIgYAIioWlho1lMA0AgDABEDABFVCxV0e/xJBgAiBgAiqhYislgFu/r9OQj3ABAxABBRtVgxt/1RqJ0L0Rf2vVLAFQAiBgAiqiqticyt4x6JHWVgJ0DwU0A3/9MKgIIBgKhK8T7fRNTnimvPrHlx1LCpETiXA7gQQATQB9OJjtNZHSIGACIaBGYvnXCI65oPQM2k1kT7ZFYkPFNvnLpftHbXfNi/3nVRsiKmb3+G7dusKV19/1htp6j29P2ERHYB1tOVHD3GStT9xzs6WnFEZPc/M1YF0t8dH11XEXnNQF/rRtdrBkNfW5lY/2I513XmknNON7bmDMBxrOZ7YGo6gbwrVnZg95Uw2x1xrPfB0g6xijpvP61RNZFhf/1fBm5X3/eosi1v7C536NBnVl+4uocBgIhoEGtKxm4EzCWV9871DUAeA+RhCB4Vxe9Oe3TCfQsWLLClr+mkEwH70O5VrLLkQvAsgCeguFsgt5aidgwARESlmv0nzz6lRuoeFJXq2I8l2ArFbwG5VWpk1fLZ614tTQBouAXAnEoqnYVuMSIroPZn6UTmQQYAIqIqNjPVsEwUs6rxs6mgW2AXW6v/vaJ5w73Fet0ZyYlvFzFPVXioWg91f5Bu3rCKAYCIqNpm/0ti76qxco9Aqr8fFnuvAj88/ZH6ZNjL3DNTjV8S1a9VRYgCfgvYj7cmMk+F8fcdHoZERMV30uyjojDmBUA2CeDuvuui1FRpAjhMIHNfPujZGcfPPfLpJ5Y893RYr3Rs/PAXVM1mEbyo0B6BDAO8bt4rs6oBR0PwgePjRz71ROq5x7gCQERUheLJuPMGXjqmFpFTAHOKAuMFqC9koqaiOVVd6MDck4P7chTOdtd074jI0O1//3M2Z0UjGAPXHa3GGQPYwxRyilE5GdDjAIkGOrMV3Ghz9jNtF2e2FqO2s5dOGevm3OMFOg4G5yt0iuhAw5ZdBsXGv16p4artNAZ1qk6daH4YxBkL4GgVPVpU3gmgtvCVAFXAXNWaWP9fDABERIMiFJx3YA9qPgfo5wdyqkDFzm+NZxYV8h6uuPbMmi2j9js3D73AABcocFowpy10MxSXpZs7bit2XWcvmniCdZwVUBzt5/dc4Lq2RPuV3r+/s4dktW4iRN4LQZPf1/unECDygdZ4+0IGACKiQaIp1fhpqP7I56/1RDFmWCqRcoN8L32b7OB8VIDLAYwubCVArYW9um3uhqsh0GLWdPqiCWcY49znK8yonZ1uziwfyOu1tLSY+0/cOM0x7peh5t0DrFiXNebsFXPX/yGIGvBWwEREZW7cIxN+CtEn/U3vdHPQg3+vFYkNz7Qm2r+wbZd9GwQfevN69oHNQFWMo85XZy5pWHjFtWcWdf9D27yND4jg974GTDGvD/T1FixYYNua16+I6thzFO6newPaACo2xFj7c2gwk3cGACKiMtc7eLgqHT5/rSvM95T5YKY7HW+/PqpdJ0LtVwDtHHgQwKWbRg1PT101tbaohVXzgL9fsAUHqt5Q1prY8BOIvQDAtgFU69ymVOMsBgAiokHCwPW1C1whbjHeVypxV1e6OfM1uO7xENw28M9nptbs6l4Ua48V7e59rthN/moaCaym6XimQ1WaAM36zwD20wwARESDhIizw+f01i3m+0vP3/jCuEcmXgjgahW1A1wJmLX/FufnxXrPjtVcKWva2rx+g8L8q++FC8WEacnGwxgAiIgGA813luMKwN9bsGCBTSfaW8TaGRAd4Ply/fCMVMO/FKWkxtFSh6pajP45RH2dipDeOKh6IQMAEdEg4GpNp7/OXd1Svdd084ZVWe2O9V3qN5CVAOiPZyUbzyq7DBbAHoC36tuoaf3fuVDFvocBgIhoEBDRXaWerfqxOnHXw8baeghe8f1ZVWqs6A2x62NldQc/a5xQbmO8bSzaAPW1H8EITmUAICIaBPJq/Z0CUORL/Z6XzdvwuKjMHMgVAqI4YeQws6DM1gBCCVWZhkxeRdb5+37NoQwARESDgeNvQC/FHoA9WZ5Yf4+K+cBAflegn56+ZOI7y2b4D+EUwP//43K3z9ocwABARDQI1CDrc/ApjwDQqzW+PgXYawcQAaKOdb5X7SsAfZ9U3b/4ywtiGQCIiAYBxRDXZ+fultP7d4eM+CyAgTzWtmnmknNOL4fPEJWa0Grq9y6Don73hDAAEBFVpEjetT6nlLac3n/bjLZOqPupAYUfrf18ta8AWLHiLxDqnxkAiIgGxxqAW+mfIN28YRUEq3wPVCrxpptjR5X+E7jhBQBgiL+fNw8zABARUcUQlYHs7I/AMR8seQST8DYBGnV8XfIYUf0tAwAR0SBgTU1VPL6976oAYN0AksO80r/7uvA2AUIP9hxEgO01orcxABARDQLG5qumvxbYXwxg+n3srGTDmdW6AqCC4z3XT/RXqURmZ6GvGSlm8eLJ8w7MwcxcntjwvwP5/ekrpg81nZ3vUrhHiJixfedjxHldBE9sG23vzzRkwrnxhUKm3xI7zrH2NBfmCEfMaCh6INhqVf5oatx707Mz2yr9oJyycMqw2mj3cY7BO3s/ZwSyn4r0PaNbVbZB9VVj9Glxah5eNmfN5kr5XLOXThmr+Z4ZCuewdKL9aj+/23TzhMPhmEkCOdNCz1TIQbuTc98lVo+pyH0G9s7THom1L1iwwFZKTab95rxRTqTmxLzRMVG1YwAn2neCU20nxHnFuO6fxv2x/vlK+kx7csW1Z9a8NHLoKY6pORKqh6vBQQI4fTNqix3GYJOq3dTp1vxh7fy1L5XzZ+k2PRL1d5q4bEUxtjUrW7dCMcZfV4yZAO4vWQBAPsT7AOhkeHvM/zbj1Hw7mCAWdkeTbDysBjrNhZ0lIpMBONvHaK3Xwbq383bz+UshmAPoWaK7B6Q92AnYtMD8aHmiPZAGMis56Zw87AccQRMUB+3jm8sCslpFflOro9OpRCpbCQdhS0uLuffEjTEjOs0ROxFqTvcaChV4GYK1ovk21Jjbyi0AzV4UO1kdc6GqNqngbFExgL6RjneMhED3HVTPHtIpNXMiat6vIpN2/+6+WejTjthrenqG/XL1pat3lNt33Ru+s1Iz3QIXQPVdBvIODzOSboHe48KuN9ZZe/pjE+8sKBAoZFayIb68uT0Z1ueMtcciIzc750J0mkAbAZwKSNRjb/gKFHfkJb90qNa2pRJrt5fTdzh9UcNpjsGD3nt3XZuOd0wp1/6nKdn4S0A/7LMRdaQTHQ2BvYfFsS9DjOdJQTZbNzKM43vmknNOF1vn7YFA4n40Hd9wbdkFgN4B5Z6TbjvJ0aHjjdHxApwHxT/t3DSR/KHL5mzc532Ppy2ZNMFR+1lAp+1j0N9zZyxI1mnuE6nE7Vv8d5TxaFY2XwaVjwMyzu/v9w4EFvYzKxMbWsv1wJu1qOFoNfiXvnNqKocG8Cd7w9xKA/v9ZYnM7SXpHG+KjXEizgQXeoEjOhUqh+8xOsMekklkXt7T/zd11dTa6BvdV8Lgi/sOfPvsdF+wai5fkVi/phxmv6+MGjoHcD4KyAS8OfMd+PitzxtgYd7YhW1zN/zJV5tbNmm05vL/DTH16Xj7wcEPJpNOBOzlFvo+AzkwgD/Zo4LVRuVbyxPr7ymH49bXIFEJAWBxbBbELPPZCruyw4eMWn3h6p5SBIDO7sjwNZet2RV8+21IAZjb/9imN6+Id1wc1OsWFACmr5g+tKZr17st3PMgzrlQnAtg/37XL/bRCffOulXcq6F9qwWFdFebs6pNq5szd3kc+J0efflSMZGv7im0+GevPej1nZ+87sr7c+VywM1YPPHdRuQ/VKTJy6x2gO6G2i+lmzNrw5vNnj0ka4acqlbeDdH3iOI9ADzdLjSK6OhU4rbX/qktJxsuNtBvCeSIglfyoCqQH6Xj7Z/rb7UhlDC0YvrQSPeuT1jFVQIcFsqLiL0X1kla5DM7OuXhzAcz3Xt8L0tix0O12ai5SiAH7P4OuoamEnd1BbLSk2yIWcF/QHF+WPW0QJuY7q+0zr3z96VdAZhwhmMi91dLAIgnY8Oz6Lv5jb9T0QZnp+e2312KALBtlx2yt7Y+8PdQfz5EbvXwo+uj6Joe1LEDv4Xv7Xh3Sd17a1Qmqui56N55pkXv7NyBr25uF/5puTiWjB28n8gPVe18aBALEzI2KrJmVqp+1vJ4xz53nM5c3DA+iy3XiERODa67Nle+PGq/t8eujzUF3WB8dxxLJr7TseYb2pcwRSTcIek9KvLbpmT9DajRzwZxaiCenDwyK7k4+laUzBlZ4ARYRPrGVp+fZdTrW9/4+/8955bY2/Ku+YUA04JaEBNI7x/6bFOqoS6t7Z8oWghQyMxkw4ele+dXVeXQUM/vqekNX+82cLD/MORnJhteFOA1iN0GNftZQcSovgNWRrz1VzfvqtXCZ0yxcYD8yAL1YVfXANNh6y5oWtzwjW1j7ddD22vUDzdiQnoWXWmkEpmdTcmGhwH4usufuvnj+yYaJXBcdqebCXJVJxk7BiI39teGFXprV3fN3PRlwQ3+vgLAtOTEmT1i/q9GZb/d4XJg3YsKuv9hQFTIrFTDRxT4DrT/1QOfhqvK8tmLYucsm5d55J8+02/OG2VqnO8B+iHs7rSDnSQB791/GG6C4qJSzATjyXi0S175D8eaLwISlX6W1hTytIhugsoIFewnqkcBMmSAA+AHkcf5s5KNswtZQu0NL1mbz0DNIQWPWYLuv1+R6Z31511cI8DIkL6Cf5mZatjZivYvhB7ykpOPMCn3VyKYtLcArYLHRbFaxb1DrOxQOFkDHAaxp+juADTQx4tGBDgSvf/W3QtLRve6wJjPfCDTgw8WMmvE91XkIx5WsXYq9DER7LAqNX2fFXqE5z0Bb+0rBS37b5Epc25pvHjpReufK/bxHHFVIKgqCr1LIP5u82six5bq/R7y0nQ3qD2IU5fE3iVWWve1EVJFc2Llm7Vy4NdaL0sFvgEx4v0HnfdBsV/Bg6Lqjv9/MJ93YHeq5lfam7DDM9was2zab847a+Ult7/+d0s/k1XM9QK8LeT5w+yZqcYvtGL9t4s968/aLUscdfbVqW+D6PUQWZy+qOOet4aUeDLudJtXTxKLCwG9VICTfI64hyp0XdPi+rnp5o7bBjjTfB8ghwQSyN5se73BqAdbvi/AJ0P/IkQ/NzvZsGpZoj0T1kvsXgbPL4PKqL0ksmcV9j9Of6Q+uZdNfDcD+GLfJjMH34T2ft8hdfii9w00DM9KNp6Vhf4GwDF7W8VS4GUB/tdYu2hZc+bRPbTpaNa8+i5X7QUO5H3+T/fJua61G6cvmTjJ7z6IgnsSxzGw1RUARORxv61BFCULAB31HQYLCvsWpiUbDxPYzzlWPrGvMVhF77KufLRtXvtDodXf6w/OWDzx3WKcH4lifIEdgJW8Hi0RnKwq1/XTufdAtNMq8iIYXdh5a7ssHc9cFE+dXZeVId9W1U9KCLP+vX2OHmRPuzVxxxPFeLGZydgFAnPzvvdj6PUmUvPvni/nU8jMVOx8gXzH70xxd4rVRLo5s9z3wbJk0oSIddcOcNb21tnG8xFHx+ddJAXmnGJ1Ghb6dHd3zanhbB6KzQXMjQBq9/yZ7Z21qJu+p30Pex1oFzckrMGvRDEs8ACguLy1uf1X/j/nhGYg8uu9fU4ALgTfj6r9utfro1taWsx9J6+fb9S52stVEW/5JJuMtZOWzdvweLHaUd/+KNjf+Rgpy3oPQN9nSsWmq5oVPhPAhnS8IxbI8eNzDwAUC0RkVQ86u4Y4w3Zle/I7hkTQ/dY217Qstr9jMbzL7RlVo0NHGejBCpwI0Rgg5+178q2bIfLv6bntN4S9cux7AOzbiap1n4Dq/IEsD+97oMCuviVKzbeJRO/ddmD+yb+eb+tbzrZbTzCOzBDo5QPbqGc3KswRby5X7vknBA8Z1Qeg5jE12L3MZ3NDrXGOFkWDAc4a2GBkl6UTmTmhD/6piXMAs2gfV064VnDVinj7NQP5+7H2WGTEVv1PR50v+9xVvtNYu8dTMf0epDfHjkLEfEahH5A3T0EN0E4L7drbLvG+zXuCPwHylEJftLp7nunAvh1iTvd7zfJbZqb/2ppo/2Gg3/Xixokids1e26Pg2Xw2d8bfr3x5Xp5cHDs7KrIOkKEBroasHfdI7Hy/lxI2pRo+qdAf730CoG+I6MXL45m2gbytKQunDKsbkvu+Ufmoz+/0RScSOaNY98RoWtJ4LqzeUU0B4M2rNx71eTT9IZ3oOK0kAWDf7+uNN4/F2gL6iT86kXxjf1fJlSwA/C25LZs0WrO5D6s4H9vXgOrxYz8DlR9nc3U3eLnGsi8MYPOnjMg3/F4iuJeiP2cE1xgji/s7tzd76ZSxNp//IoCP+vmiewcXNXLKirntj4Y386+fBsGyfdVEgCuXJ9qvK/S1piUnzozALPIZAp/K53JnDWRA6jU+PX7E6G7nMhjn46I4IcDo2QGRhdvUrt7b1Sl/64DVvQJqLvG7gdZCnz7j0dg7g7qxzu4bFEV+D2D03j+WnVLI1RhvzroXBVTkdDZbd5nfa6ibko3vU9hf72O1zlXY6a2JzK2FvsHpixs/6oj+l69gO8BQMxCzk7HzLMzGagoA8eTZQ3pQt8vPaqxCn29NdBxZfgEgoN4I2A7RpKO6cFk8c0eYqwBS+BcYd7qwtdkR/NDvtdMKfQ0wLbUYfd1Abp7Td+4T6E39wwdWaH0e6n6lVg6+MZXwt8Fi9qKJJ1jHWeVnJUKhP2tNdFwVSuewaOIJrmPu2ucMWeyv0/HMBwJebUj5OTWjor9sjXdcUeARIrOW1DeqSu/McOZAT+VY2NVisv/p9/KuqUti76pRuV5UTvZ1sImdMdBZ6j8PjA1p7L4r2t46/0CWSft9nX8MHJ9VmJ1icDRUx+rucPi8a0zbyrnrNg7k+HZF1+w75LtfSic2fCO4VZWGD0H0f/y0KVfcr7bFNywIe2DYfTrMbqimANBrRrJ+s597N6jojtZ4x8hqDQBvGaH/DGt/bV3nuhUXr3+l7ALAWzrFu70PBpoykZpPFLp8dmGqvikCLPW5P8CF6I+i2v2VQq6pnL10wiFuPrLG++Y43ZSOdxwWdKLru4HNzq4HADlxX6nS1Jijl89e92qQrz0rNfFfVZ3v+6m9mu53B3VN9YxUbKpA0n5WgnqDp1Fcsby545aBB9++SxPX9F0O5z233NCaWP/BIFZ6BNK2775fLl7evP7mgmfFPq49d1U+1ta8/hfBzAzPP6AH2Yf62aT7VBRjTgr6zpuzkvVfU8iXfPxKj4V7worEhmfCXQHom/B0VFsAaErWP+RnX5FCtTXe4QTRj5Z9APhb6EE3VK/fDr16X6uUfgV2M5jVczP3QdXrtZnXpBMdiSDOna2Kd6ShZqGP9GihOi0d7/h8oTdUWDZn4ybH2nl9mxW9HZGHTF884fSgG0fNru6v7Gvw390X2B8EPfj3Wh7f8AMF/CwTO2KjPwnq9VfEM6tFvb9+7+whh+76QgZ/9F3DvHZ7VOsugKiP+8frlGBSu3y2nx/J9+RqVwbxWm3zNj4AwFNYc4x7clDfaxbZn/V7hY7gm2HcdrsGB36177SQd7UC55thDwI94d28q8SzXNnks/27pbisuqQlUtQJ5GP7w/ypd9IVT8adsgoAu78Y84yHDjiXz+W+FOTrusCXdt+P39MI8MKAL0nbUwiYl3nEKq72PvrVNAb52efcMukdgH6+v9CTF+dXYTXOWuSugmCrj2Y3Yeri2NnB9R/W82UyFvaHqxN3PRzE66YSt70mFld5Pz5w2O7vq4BZ4KKJJwBo7GeG9ECQ9yt3Rds8HlsnBTIjXNLwHoXO72dGtCuqNhVGe04lUq5r7BV9sy7v4a457CfVOaJSjYObqvjc8KZdpRuJcZsr+jUIvmOh33OB63r/bUVvBjQFsSsguhbAegD3q+Dx3ZsDAzNc1fl+N7Z0zF46oeDLowN9GqBCsv0FMwFeHugmsL1ZmVj/YlOyobeTmtP/96eBX4pVJ85/Z5H/kpcNcdbYMwINP677JcG+l78FuL23RmEdE6nE7VtmpBpaDPDfXn8navo2Ud4VSLuzTs7rySxXs0sDXQFp7rilKVn/WH8rMH97/Xz+VABPD/T1rESmof9j7NFgBx5ZCcWXPSSxowJ5Qavf7u8cvChuC+JxqHtd+Zi74U8zUw0/BPBFj7NSUfRdRfCRsN6TUWtQhYsAIu6uv95AyuMvdAbWfxo1jo+1BOO6n0kP4NLPvpvORZ2zjZrxKphT6CZmAznPzUfunZo8e2ohExoT8BfpoRuWUB6n6Krc4PFHhwQ/AK7dDsgyjx3FuKBed3cClPd5mJmtC/sgrtMx/wPBs95HbUnEk+cfEEzP6L1X7NxVG/jNW1T0Rh8/fkqBo8BkD2/o+SA/37iHJ97rZRZjVQu+b8CMJY2nAlLvYbaRCbtNu9nc9/tuluV5AqTxePLs0J7Xa8WpyhUAqBnl8zcCWwFw1DH+AoMM6NkuvZPeFfHM6nSi/Uut8fYTXZs/E9DrVTQ38MUIHBZB3brZi2Inl0UAKKXX63o6+s7v959ShobSWQCezrmK6pGBdQg5uczTKo76uHnIgENQKgtrf+qj+Q7JIjctkP5DPU8f3DCey2A00uG9r9vzUwr9jMf9j/9uoCtsuy9xk2c9dCYFBwCx9qMef3BD2G26b6VS7G98dMgjczp0VqgrANU4/kMP8PkLQS6pO6X4zG3zNj6QTnR8yGrkGIj9tUJ1gCsBB1rHrJh+U2xMRQQA1XDuZn1H0x1vQOVJD40tlIQeATze5U+GBjXzVWMu9fB5NZsbWpTHmebz7g3+zs+5gTzBzcI6Hmfq4cygavCk90FCBvx0vtj1sTpVHdv/azjBP9tArIfVHakt5CVaWlqMengkKoCd4x6t/0Mx2nRWcIO/Y9IN76mERqtzEyDgtz8M7GoLgb+aWhNsH9KWWPt836XZauoh+sIAE9RREjHXlz4AqCnpEpXAPt7/DDycFYAttdknvaa4HnQXHAD67ift4Tp0EWwKckNYvzMmqI8bssgUBBAIDRzH2+pLOCdQl89e96oKdnkLwHbUQF9n9H6RQ71cn66iwT/fQs0L/fdD2FLISzx00sZ3ebseXJ8qxo138ObVTepjT4XCnBXaCoCtzk2Af31MtOdpAxDYaTwLccqhBq3N6ze4OT1DYe8c4EA+fWaqMV72KwBAiI1YjJelz8gV155ZE8oKhMfNKY5FXaGv54hO8rjk8ufifrvGx/3+ZWxTalLBd/TzcQoAQV0+s4f30OmxPgMOoFnNeQs6wNsDn31K/zUWX5dE7mnwzHu9TLKoD+ERtYt9fIrj4snJI8Pp3qpvB2BLS4sB1NeqWATeV9w8tNmyqWnbxZmttcB7BxoCRPWbfvu3on94CfOBluptw84Lw8YOCaej8HbZkBpTW/BsQPXdHgecoj62VNX1d8c3zR9b+AqA9dzoR73+tAlpFtPp7b0O/BRUJO/tafCqckLgs0/VER4a218KrOKZHjuRp4vZpq2YO7z3AWJ61J4WxvvI2+rbBPjg8R1H+H2mjIp9MsgZi79jsCbU7yCVyOzUvDNbgYEcS8dk8fLcMl8BCHP0sZ4CQGe0c2g4+QNdRVxHOdVjKNlRzK9gRXzDs7tv8eyNK3hnoa/p+jg3+sLhY8Np8wKPlyYNfMlR1boeVwAOm7Vs0uiAP99+/bd/ubPAFxnnMeBsK2abfq02e+/ulWfPnephoQQRU32bACVijvXXx6pG1Q3yMlen3Gqy4uL1r1iVfxnYuBCZV8IA0P/yft/z1kJjtnv5qf1C2ggo8LYCkLd5LXymLcd6fFNvFPeI7s1B8nvvDVACWK42ng/i4TtfD2kFwOPmRy1gybHO+yVp+Zw9P+BD+0gPqxtrBvrnp66aWqvw/FyNncVs0n2n96A+9gG4B4fxPmrUVF0AUOA4n33sw6nE7VuCe/3y3FjZ1rx+BWB9H0+i+l4/l6KW4sOHFgDUeOwgjTM0pLfgaRAwkcICQN8eBul/N/ibDSJXgu/4fu+tQQq+m5XjYxlvW/eIUNq8VW8rAFrAjCM9O7MNoq97nNZMC+qzTb1x6n5AP3f5E7xy2qMTB/x8h8jOXYd6fgCPx/0WgX6/4mMjoJhQAoBKvvo2ASqO9zl6BHpPk3LaA/BPbQ7O9wbwiYZmNdpQzgEgvGRhraflbs3na0N6A93efixaUADYcuDQMV53tCtkaLG/BwMfNwSCHlz4gaKeB9XOkZ1h7QHw+jyIgl5fVR7wOBWYGtRNaaI1nWf1t1Tqwv15ITvzRZ1Dvf+0O6QEbdrHnTRlbChtrDqfBXCOv4Pdrg12kPV3Sq7bdBcthJ3x6IR1gG7y3U6M97sMmmATav8JXkK8n7UY5D3NNkwknPeg3u4S5VqjhXUE0SHeZy46tPizJdnqo2YjAhh8PbfjQ3uGhBMAxFvbK3TGIcAGj3UdlZXaSwI6sPq5M592Iif/XWDf4b2dGtmv+OOUedFHIM2GEwCq6xTAm1dLnOqjlWSjIoHeAErLOFT1BmoLXeX/Q5mjBuUKgOtjo04oA1/fv8KnuVytj8Hx4GLXQVU9P3VQ4echQnutu/cVgFx3WKcAPJ5qKey64yy6lvkYMr4yfcX0oYV10vEooB/qJ5T8pO3iTEHfo9F8jfc2bUYWvU37WgEIZ99NtZ0CyCI3xdcmPJG1QT//QXxcQYS+fRhOUcOnA3OP/7YqR5RvANDw9gAYK7aUDdqItwAgEdHCBhvp8j5rwJElKMRWHw2w4A09jo9Zdc3Q2pKuAFgtbAXgzQd/3O1xxDg80rXzO4W8Xo++PB/Y1z4NfXD343OL2YfYo4rfb1nv+w7EfSOcFYCaKjsFIDN9fgfXB95VlfnTlXLGPB5qVx1sA7XiYfwPMcWqW9qvy9vr521nQQHAVV+7oN8eZuja8yiXf8N7HtQAdvR6n1XX5HrCCQDqLQAE0uGo/baPvP2J6YsbPzqQl5lzS+xtIpEf7OOvd1ojlwbxTH6RGs/PL7Biji/6UKVWvU9EnJfCeA95v6dPy3h5e/f+FJnhY6q+NYqxrSF8scbfZCNS1L5UkHvZ/xwbneW7AhDmuCOmpCsAqt5ev87WFhQAznyi/jUfT5Haf9bihncUsw51kC1e7wUgKpsLP4a9H8Td+WgobV7hLQAEcd1xujmzHGLbvS/I2Gumpya2+LlL2Kxlk0bnraQA7OV+Atolgpkr5rYHck12N7o93zvCqB4b1h0d9/qaNbX3eb0XgDF4LqQQYnz+QqRc++purb2ot2/yPOmB/jyIoPnPx61xynlMc7uHveI/TJdxAAjzToBGbEkDgMDb6+cjhW0CXLBggRX1fqeovMF7iluJsV0CDPf23vIF39bVzx6ALgnngBd4u0mPBnTZkVW93OujagUijjpf7cGW3124uLHfS4RmJSedo3l7t6icvbfB38I0LY93BHZJVmTIqBc8Pc1z9ycaksPWcUUeshyv4a1bs+EEAONzE6CibAOAEfmYjx/fGYk4PwknVPkbA9UU93kMw6Ov+76M21p4vv17pKpWANSpMdASJgARLy9vCrwKYPexLX/yes93BxgP4KZilaELrx/mQKJefjbqmocKH3x7B1Vvx+V+0Vw4KwBi1NvOjmAePrIiseGZpsUTL4GYZfBYa4GcVSO6vilV/6Qokqp6v+vgj1GJZHP53GiRyHsAnaWwk/bajkWfdF13ftu8jgeCrF/bjLbOmcmGFwBve1YsZIqv+00UOhPLRd7h8eTlzhE49KlwOri8QPx02VKWs9vZyYaYBc713tfhmvTsda+GNGo45bwQ3pmL1EV8PrnGivtIiVYAPDwNUMNLUI64tSX9tjyeczM2pwGspPzexwE0rZhlcCT3Do/va/trB+GPAbyi544u69aEtQfA2wZQDe7GI+nmDatU7Hwfp4P+2k6PVciXesODY83jrmv/bMS5R6A/E2BfD5laGFU9s23exgdCajqP+Ah9U4qc7T2eRtP7UomUG84KQMRv2ynLCZ4V2+Kj73q5Fs43Q/xmy/o0eG2dM8z37zg1pQoAXpJ7iBvSrJQ2ABTxtpJi9V7vnSWOnLGk8dSivTfVo711qnZDpiGTD+AFPdfdcUNaAYDXK1CC7XBa4xuW5qxOVOjzIbbr3xnYCelE+/uDvgzrLbW53XuG0Qkzbmo8qIjH9jEe+7e7QnsH1l/faaX8AkBTMjYXahq8913yb6nE2u3hzdn8HY9Z1xb1FIC1cpy/8VWfXnrRuqdLFQCipWxceSltALAer3DIFXgZ4O5KOx3ez5n2taT5RVwIOcnjuL06oMp7XgFwopGQLgP0/F0Eviy7ujlzl5vLjwPwE9+rAXsNNNr7gTI50VnpRMf4ZYnM7WG3GwPJeM98UiMRvaSIh/fJHt9XW3hzVX+bAMXHHTKLYcrCKcMU8gMfH+C2dHz9jSG/LV81qi3yVQBWxdeTJY34a38m4Nl9nYc3GOIpAJQ0ABh4O0CDeBjQ8tnrXhXo/T6S9Af6niFQHKd4mMHlapBbEsxg5X1jX97Nh3QjIG+XiWlI9x5fecntr6cT7Z82bt+jgH+iwHb/wU1zFno71H7FWHnnikR7/ap4R7pYx8/rB+bvBXSzj5WfDxbx8PawgqabTn9s4p2hBQC/dwJUKasVgKF1+e+K55vU6Gabk/dDwt3U5XcToCBf3FAl3vdK9K1QiP2/kgUAI1pXygbmlvgUgIq3A7TO1mlAo84t3tsRDn75gGEzitRqT/HwMyuDeqqXn4PY2LBWAMTjHgAxYd6XYfm89j/3BoFaOEcCduNeZvevqehdgF3mQn8McT9qYCfUqh6wItExId2c+Vrv3yn28ZNpyOStYKmPVYCTZyQbQ98LEE/Ghquohz0AkizkeQj99y+u+Bs7yudRtzNTE+cA8PqIWxeKy1ZcvP6V0GfYPsfAYp5WmXrj1P1E9ULv7QN3rJ6buc/Pa0SCnQWhzvQ/XQut84uY/DAt5apX33W6/benfCQXSACwgqRAv+X1KWqipqWlpWV5mJ1ULBk7GIqDPLz5HwXY8jzv5M1H8iFtAlTP21viqbhJIRXqTau6THassc7b//Ed6X1Z1U+uTmTuDntmNfA27dxk1Pq4cZH9CoA1Yb6nrHFOFdvvyo3rOOan4c5WHZ+XD+nwcvhOL0iOP05g/sdHcPnk8uaO24rU4nxdBZCDFO021NHa7oug4vm5L2L1a74n7YGuAKD/N6sI7yoAtc6IUjZ0gfF4FYAE0vmuSGx4BoCPA0VOfeDEjovDrMFINR4Sq/6utXl9gA/18L6RpyYfToL3vgkQGPX60+FtFlXIrGTDx4w6vxfgbf9/dqCPRKENq5szd5Xr4N9r5dx1GwH9g48+57xZqfpJ4Y4R/c/CrOAWP5uvBsL1eQ8VFRw0ddXUkq6Kzrkl9rYoordBZZTHTvQ7yxPtPy/W+zPi77RKRM3hxXhf8WTcUcW/+viVdHoAoSnYpwF62AMQ5o2AXEFpE69YjwHABNYBq+hP/TV4uTrMTkGMzu8nACqMfDbgV/W87GMjZlgon9vHhswnosNDWaaatWjSsTNTDWsUuEYUw/6xX9WfhLuDP9Cp7s/8jc/yk9DadF+y0/420PY4rvly6IOV9RdeRcVEd2aPLtXXOPnmyYe6rtwmHu/tANHvp+Pt/17M92gVdf6agz2iGO+rS1/9iAAneQxNWx3HfmJgk/ZAO8H+i6nhnpcq6QoA1NtSvKkJLgCsmJu5FfB+TwBA3h7d2f2dcNL+pHdApZ9LfMyv03Pb7w627N7bsbUIJwCo91WdEWNGBHrcxa6P1TUlGxaosX/Y23X8Xm/NXA6iOnYhAM830+ntKGt2dX8ljPcyI9XQYLDvewC4ot9dPm/dk6F3L8b6brsu8tNK8R3OXhQ7eaiTvxOQEz3+yjfS8Y7PF/t9GsDX01IFiIX9nnqDvCP6PY8TQAurly69KPOXkgeA/8feuYdXVZ35//uufS4kISQRREofrLSl7Y9aL4AWFNhJAGkk5AKcE/09VB7rvY629fbUqW3GmelMW/RxOlWnWK2XQSDnREJCBC2QkABGbRUVdaz1MoLKRRAICUnO2Xu985wDM49ALnsn+5wAz/v5N/vsvbLW3u/6vu9a633ZkZpKXXYqA4MdARiElFIEtpT6UdKzdqxi+dayqkLPjwVaWt/f27EaBj4KQv3Yc8PoIuUpM6VEAGg4D6tndBzy7D0pixZclpultgFITIA9e8Hsm3uqCIBoOBqLE9/hToDhrkRfeNmOUCRkKHBfx9a2ZXDnv6bJvHzdtU0kumXWU7Oy0jl+JVHzClupzc52/HOMGdfUhhvvGRyfjb/kchAmFUdmpiwKYEbMUax0PRzMZQmbr5huqh3AfgnPDFFlZaUC9VQ45JgPNZi8NiVfiM52NoY6I0Vvk6Pnx9jyNF/Csws2bCLwMufvMCUc1sfnRs0izz76SP4cYpT1ckmXAb0wFUk9iHiE02t9KRKJBD7D6bV7PGiD2Wj6SqPmE8zJPSAOJga9qLSq8I40HgUdEMnjh8TrXfzEx8w1c6pnTPOqDV3Y/XcAXdCLMdtPGuXR8IsdaeoWsx82aUxmRuyhdFQETUxepRFzJbFaToCDzXK8U4Fn1FU0/nEw3rHSGjOXmIa5E5qkDFgpKX9dXD19XA5UI4BxTjx/IvrRqnDjIwOMgHjD6/9v89fJ2XqK77VvbTw7NV6YcnTfuMPr3AogJjjbIGIb47x+fgD+mwG4KawTJFBtabRgwGepi6rNSQQs702patbXpiSZTMKwMTmuD6/dKn7HdlY5bkOuUl8Z6PNy9mIBWC1yI/pAvHhX3rAPSyMFT5dEzbtLq8yy0siM8ZfWXpp9UqoAy/4BCC6OglGmwXZ94v8asDGuKpwLUot781w1q4p0HZdMfGNg9G89n9WiudUFK0KR2Wekom3lK2eNLI3mL84h9R6gyh3+rC4A6/x0JJjqZSKY2U+5f1VJxPyel3NHadS81tDGywR8q29bg06l6craUOPvBu64eKWmIubvAXWDQ6N9b21Fo6cq6nuRS78ZROBNJ0cbNdA04a3phV4eh0umuISKOhMqvLm1nWc1Xd3U6amRiEz+jp8yWo7fAOagRU8HYP+kP+fyk4U9CNVgjOhp8ifm22srmh5IiYp30e9H2oMNdeHGmV62YU6k8Ms+8Pu9huCPff/qh6AjPBDPsayq8EomXuadgOFWYnzMoJ0E/lQDuxSpT0ljtwY+iVHXbl9G3o76ufWH02mjyyPmVA3a4LTg0f9pbOCRrk7fbeuuWtfuvm/z52tFS3tyaBIGmLQ9v7aieU26PFW2VD1xsqjXAMeYHifQslXhhpcHcq/rl0z078rLvgxEVxDzvIT4cjjj7AX03bWhpkcHU1uW1cwYruN6s5MJt8cAEdFPAzz84f6WKS5aUxQ02jrnG+A7e400HcvfbG1d4VU9jgELgLmR6WMB+pmCusbFixgnTXcEaMTvvajxXFJVOJ2U/gOYvuFi0lvHrO698O3pLQMRAqHI5IwYZVwL5l8Dzs9sMvAWEe5Xhu/Zmnnr9nj1Yif7gnQ9QNnuHGkcJNb3K39giZP2hCIzc2Kwf8HEP6YeiiAlw1TQP6wNNS/x+gMuqZ5yIevglQp0q9OJ9wste1wrun+gtewTnvPwLv90EH5FTOe67O9PiLBUsa4/c3/bS4/c8ErctQGz7J3ElNaQPoM/J+BjEH9ks3rXB7xLwF/3BGOvbindcigVzyypmraIyPeY+zTKvIdJ/S7I/oej4ec/d+LJait+H0Df7+07YVBodbhhXTomKY7rmwH8xE3tfGeWnz8F03oQ/pIYP7b0uxe8k7+9O1tYvMwc4VcYxQbOscATiem7imiy46N9/2vzgQfh43+sLW86MBiTfvHq4kxfR8f5NusCpfhGMI3x4nsA6E+K7L8w6JV2y/9unpG3u7uCUMnaFYZ1tkHGJJt4GgFznC5BJPd4ER7dF4jf7uV35loAlC43z7ENdYkCTybQJQye4DQRTTcv4X4w1jPxVjC94TP49b52MyYG0d9xaIINdTGAiwC+xHl6yW57YDdYv0DEW7Q2XtSZWVv78nISfUAGz9AwZhJ4jtvJ9oRJkmkrE54nrRvtzOwXBuplFVWZk/1EzxLojP4pW2wg2A22RrPPH/yoc4jv4Jgde/SenNyxTNZ4kCoHeEGvqj+h9DUvrPUooUdRtTkpYKMICheBaRJAXoTyD2jwmwr8FjNvM4he7y0kmRh3VjyHlDGBwRcTJ9PuGgP3vtFOrF9l0Gua1br6iobVzsS3+agb4Z1SYXDEwLfYzPUZ8D/i9V6Py6P5pX7GMsee5gn9i/VgNIB0s7aMna1d9sGRWV3UqTLHEdvjiVUI4OLeIg0Mfpmhrziaf8NzEoJyRJdvNkhNAnQhgyYSp69aXTKyAU5GpZipHUgIeDrLvcA+LgIIWt2F2F3Phbf8NY1KlUoj5gwmdR6BL2DQhKPefjoyxdnJVMZAsi8VkWJgFLk8cvgFtinglppwY5PXDSWX4dalgEppAQ4NXrw6vPGu7j2Bgh8Q4bEUvzdP1IUbelwXL4vk/1OylGrqWhDTzNesrmgaUBGMec8UfsWy7eUENSXtkwHwJw3juvrwek8q1JUunzYGhu/DVH+8CQNYt6Axs6dEOaXR/FfANCHFHjYHYZ3lZDnGjJijcklt62n5ZdAg3q813felA62L3UY2ehU8VdMvUkqtAtPoNIsbzYz7v7T/0M+8/H9OjKSqlxToTJwW8GFNeIqJf1u/oOmddD+9pGr6zUTGg6d0DwLvgPS9F76Zn7IU08rdh+B8o1O/bQep1h7/puyUhzupj8pymlCW4hYEbEUDDvGsnN/w0aj9bSaB/znp1aflheXtFlkL68KNs72a/JN9bvjGpUO5JxR60dqinj1ARurffxDZhuHI42oKN+1iTfMTxvbkslyUpwi/3Jk3bF35ylkjvbrt6ormPwfYN56RTBRkp+mdfo6YJyacklRN/kfGXd15mkz+28D2TwMIjlkd2njTYEz+ocjkDCZVeQpP/W8wYVEQI86tCzWtSGXqdpeZpbRGio+6a429PXaLho9SfJilr2IPDJcVOfoz/NzpSUrRowbr5/OemfG4bevFDC7v93JN7y/Gu7ZWD2TQiD9GQwPf03E8BlQHQ6fF01tbtDbWszhFZzqS6Bq237EArKtoaC6pnjIVekiN44xraUIBpmXFW4qXmd+t//9Ne72459GlhVuLV0x7wlC+xQAKUxQN2mJp+vmaisbGVPdTZWWleo2aQydvguZeBRIT8ApDPaM0rUxHQqS+iCE455QTU8nNkVjG1PlE3YKWrel6rMu86LQr5caP7L09G7vmhwA8NOupWVkBoyMQHGJkAb4Ax61MVioYVyrTZ1tBizjTIF8Q4AzFGMJEmdBWUJPKZSQ3TWUb0FmAygZ4GEDZGpxHoEzF9Lc+3vgdAM5PZR8MRdDTNcajOcrnl0ZmjAf0zQB/fyD7FnBkqeYzgnrWYjy1JtS4MZX55UnHD7Ay0mDMaFtv/wczPiZgdGrbgF3R0PpWN79JGIziZeYk+NQvDeAanERV4BToq9pH1dcvmTjLSw/66C7oGSXVUy4EB28iYIGbTWk99P3HDF7q0/qpmiua/ytdffTatzeeB1YjTpEpP8bgVwiqBaw3sW201KWhap+7uZQmnPxaKrnX4iWAmhP9GMDIZi82xLvvK1ehlZAR13vPgUIuQ3UYBo45xhbv4nbNsWP+ibbRxqGmgiYLpwnFq4sz0d4+zlCaDMPXeqLnoNpiHR3HGLpMvxE/mfKwhyKTMzopmK+AOWB1CcDf6uMEg6XB2xVoGxFeYKLNAT38pe52uqZqZi6rnn6bxcY33L/gfFD1UaqXQW2J6yymlc+GGz7p6brLqwoLDKXD7GBjlkE6Dqg2F4qqk5R9iNm/tja84e3+dlX5CvNc26A/ENPkk8ve0Z21FQ33per2RWuKgsH2TtNmnglgChHO63OHNfEODWpRoJaYtl+8+O38l1MZbu2J0uXTxmif7z7VXTIp5iCgetr4OFSDu10WVQTXYoiZ2on4MJgOgXQrWLXa4A8Nog8I+kNm3wexoYH3116+tutkttGlVfmzQXSZfTThliJkUrIfk996DhErgA2wGnZU+A1hcMaRaxPvjKOSsm2aET8u4tUGUPzoPQ8QMTPDYsJ+Bexi1h+BsCNOtH2oHvnGYEz4AxIAwulJZWWl2nbe5nPiVny4AuXEFWX5NbcTGa2WsvaP3tf+36lc/xS8JXmOnRBNyXJP/y3N3ljXkK+tXbi2NV2i0YyaZ2VrPdogdYZW8CuNeDLUaut99tCcfenOaSAIJxsiAAThdJr8IwU3MfjfTjzOxh0gatTMbyimnUTotFkfJmV0EdtZICPXhpUDVrkGkMOgkUQ8DsmNjxTwyNj8MJ2lXgVB6B2fdIEgnPqYj5tDcrPoYQauPkbXE+9n1vcGQY9FQxtdL0OZjaYv9zPjG6D4NIYxlZgvA6hfO/s1MAeACABBkAiAIAheUByZebYBeyWAicf96SXls8pr5m3a6dWzrl8y0f9JXlaRj+haZip2t8zAHRe8ZQ4djHV2QRBEAAjCacXcSEGhIlQdnwyIwc91dPoX9CcXvlPKI+ZUC/RkX/Xyv4jy+c7yMvW1IAj9R0kXCMIp6vlXFd5IxM91kwmwdtT+QyWpnPwT1ISbNht+42IAjs8tW9oeJSMnCCIABEHoB2aj6SuJ5P+7QfwfJxYD4jcC0AvTdWpjVfmGfbCt0mRdDwewxRJ1FAQRAIIguOXS2kuzh32magh0ywmTazIrm3FjunNO1F65aQe0/rWTaw8pvVtGURBEAAiC4ILylbNGDu8KtCiguLu/E6huVXhDy2C0jQL+Rx3k57e+ub9tn4ykIIgAEATBIdcvmei3rdgqAr7d0zVMesVgtS+5FADuay/A65JQShBEAAiC4IJdeTk39FXa+bDlbx7MNjLovT4u2SwjKQgiAARBcAGBb+3jEjvPyBvU9XUmPtD7BbpeRlIQRAAIguCQUGTqmQDG9e59s2ob2jaomT0VI6uXFu4M0MhGGU1BEAEgCIJDYiowru8IAZFxuP3sQY0AAN/s6W824dG0VY8UBEEEgCCcDlggR/X9lfbNHqw2Fi0tGkag83uQBod8PuO3MpKCIAJAEAQX+OLWDifXEfQi8OCk9/b7OysABLud/kn95sgpAUEQRAAIguCYA6PwccKLdiABJpVFCkJp9/7XFAWJcGcP3v/bQR7+GxlFQRABIAiCS5oKmiyA1jm5lhUemhuZPjad7Qu0df5995sUuYNV18JoOBqTURQEEQCCIPQLWuXoMsYIBVU/J1L45XS0qrTKLGPie05sBjOgbqhb0LJVxk4QRAAIgtBPYkODEYAd1vWn8T7oP8+tmn5RSif/iLmAlVpOTCfYEWJ9d2244T9l5AThJHYrpAsE4dSgOGLeaUC5WE/nw0T6F11ZWQ+uvXxtl1ftKFpaNMwf6PgVgBsJRMd7/sx0z+qKxn+RERMEEQCCIHjA9Usm+nedkf0qMZ3r7pf8IRP9gx6SVV0/t/5wf58fiszMibG+jolvJ+CEuv5MHIe2r6ur2PSkjJYgiAAQBMHLKMCKaRMMZWwCKNPtb5nQTqzrmdQaUOe2eGbu271FBiorK9XWb2/8KgFTNakixTwXoIxu7w3eTkpdWbug4QUZJUEQASAIQgoorTLLQKoagDHAW9kM/oRAB5nQSuAOgA2wGgYgB+DRDoXGMvKrW+WsvyCIABAEIeUiIH82CFGAsgfRerwPzTfXVmx8XkZEEEQACIKQJkqqp1xIesiTAL6Tzucy+HOQeuBgm31f09VNnTISgiACQBCENBOKhAJd2HcbEd8OxohUPkuDPyPiB/YFrAe3lG45JL0vCCIABEEYdCFgDo2RuhrMVwE0ycNbWxp6nSb9NA3JqRnIKQJBEEQACIKQQspWFHxNE0wimAyYBHzFpaf/gQJtBulNygjU1cxbt0d6VRBEAAiCcMpFB6aeGUdgLCM+luEfS8S5X/y7zXofk/4UFNgeULH3auZt2im9JgiCIAiCIAinIVILQBAEQRBEAAiCIAiCIAJAEARBEAQRAIIgCIIgiAAQBEEQBEEEgCAIgiAIIgAEQRAEQRABIAiCIAiCCABBEARBEEQACIIgCIIgAkAQBEEQhJTyPwEAAP//5bGhjGuXBnQAAAAASUVORK5CYII=;" vertex="1" parent="1">
          <mxGeometry x="680" y="555" width="70" height="70" as="geometry" />
        </mxCell>
        <mxCell id="1HZLHkHwK4EhgwmRbPj2-36" value="" style="endArrow=classic;startArrow=classic;html=1;rounded=0;exitX=1;exitY=0.5;exitDx=0;exitDy=0;" edge="1" parent="1" source="1HZLHkHwK4EhgwmRbPj2-32">
          <mxGeometry width="50" height="50" relative="1" as="geometry">
            <mxPoint x="580" y="600" as="sourcePoint" />
            <mxPoint x="680" y="590" as="targetPoint" />
          </mxGeometry>
        </mxCell>
        <mxCell id="1HZLHkHwK4EhgwmRbPj2-38" value="" style="endArrow=classic;html=1;rounded=0;exitX=0.5;exitY=1;exitDx=0;exitDy=0;entryX=0.5;entryY=0;entryDx=0;entryDy=0;dashed=1;dashPattern=8 8;" edge="1" parent="1" source="1HZLHkHwK4EhgwmRbPj2-10" target="1HZLHkHwK4EhgwmRbPj2-32">
          <mxGeometry width="50" height="50" relative="1" as="geometry">
            <mxPoint x="410" y="480" as="sourcePoint" />
            <mxPoint x="460" y="430" as="targetPoint" />
          </mxGeometry>
        </mxCell>
        <mxCell id="1HZLHkHwK4EhgwmRbPj2-39" value="Actor" style="shape=umlActor;verticalLabelPosition=bottom;verticalAlign=top;html=1;outlineConnect=0;" vertex="1" parent="1">
          <mxGeometry x="191" y="570" width="21" height="30" as="geometry" />
        </mxCell>
        <mxCell id="1HZLHkHwK4EhgwmRbPj2-40" value="" style="endArrow=classic;startArrow=classic;html=1;rounded=0;entryX=0;entryY=0.5;entryDx=0;entryDy=0;" edge="1" parent="1" target="1HZLHkHwK4EhgwmRbPj2-32">
          <mxGeometry width="50" height="50" relative="1" as="geometry">
            <mxPoint x="220" y="590" as="sourcePoint" />
            <mxPoint x="365" y="574.5" as="targetPoint" />
          </mxGeometry>
        </mxCell>
      </root>
    </mxGraphModel>
  </diagram>
</mxfile>
